HIERARCHY
ROOT joint_0
{
	OFFSET 0.000000 0.000000 0.000000
	CHANNELS 6 Xposition Yposition Zposition Zrotation Yrotation Xrotation 
	JOINT joint_1
	{
		OFFSET 0.511002 1.944000 108.288940
		CHANNELS 3 Zrotation Yrotation Xrotation
		JOINT joint_2
		{
			OFFSET -9.074005 1.512993 98.440063
			CHANNELS 3 Zrotation Yrotation Xrotation
			JOINT joint_3
			{
				OFFSET -8.590996 1.815002 98.366943
				CHANNELS 3 Zrotation Yrotation Xrotation
				JOINT joint_4
				{
					OFFSET 2.489998 3.531998 136.462036
					CHANNELS 3 Zrotation Yrotation Xrotation
					JOINT joint_5
					{
						OFFSET 22.708000 2.955002 80.357056
						CHANNELS 3 Zrotation Yrotation Xrotation
						End Site
						{
							OFFSET 0.000000 0.000000 0.000000
						}
					}
				}
				JOINT joint_6
				{
					OFFSET 2.860001 -27.684998 77.234009
					CHANNELS 3 Zrotation Yrotation Xrotation
					JOINT joint_7
					{
						OFFSET 5.449997 -131.244003 -18.851929
						CHANNELS 3 Zrotation Yrotation Xrotation
						JOINT joint_8
						{
							OFFSET 35.757000 -24.661995 -264.074097
							CHANNELS 3 Zrotation Yrotation Xrotation
							JOINT joint_9
							{
								OFFSET 49.392001 -1.747002 -239.960938
								CHANNELS 3 Zrotation Yrotation Xrotation
								End Site
								{
									OFFSET 0.000000 0.000000 0.000000
								}
							}
						}
					}
				}
				JOINT joint_10
				{
					OFFSET -0.127998 31.625000 75.753052
					CHANNELS 3 Zrotation Yrotation Xrotation
					JOINT joint_11
					{
						OFFSET -5.618004 131.132996 -19.557007
						CHANNELS 3 Zrotation Yrotation Xrotation
						JOINT joint_12
						{
							OFFSET 46.488998 30.127991 -261.826050
							CHANNELS 3 Zrotation Yrotation Xrotation
							JOINT joint_13
							{
								OFFSET 66.021003 0.474030 -235.934937
								CHANNELS 3 Zrotation Yrotation Xrotation
								End Site
								{
									OFFSET 0.000000 0.000000 0.000000
								}
							}
						}
					}
				}
			}
		}
	}
	JOINT joint_14
	{
		OFFSET 15.887001 -78.871004 -94.561035
		CHANNELS 3 Zrotation Yrotation Xrotation
		JOINT joint_15
		{
			OFFSET -4.133003 6.714001 -473.615967
			CHANNELS 3 Zrotation Yrotation Xrotation
			JOINT joint_16
			{
				OFFSET -19.541000 5.340000 -399.613007
				CHANNELS 3 Zrotation Yrotation Xrotation
				JOINT joint_17
				{
					OFFSET 164.317001 41.657999 -73.195000
					CHANNELS 3 Zrotation Yrotation Xrotation
					End Site
					{
						OFFSET 0.000000 0.000000 0.000000
					}
				}
			}
		}
	}
	JOINT joint_18
	{
		OFFSET 6.513000 77.960991 -96.406982
		CHANNELS 3 Zrotation Yrotation Xrotation
		JOINT joint_19
		{
			OFFSET -10.660004 -8.518997 -473.485016
			CHANNELS 3 Zrotation Yrotation Xrotation
			JOINT joint_20
			{
				OFFSET -36.967995 -11.098999 -398.260010
				CHANNELS 3 Zrotation Yrotation Xrotation
				JOINT joint_21
				{
					OFFSET 166.067997 30.363998 -74.785000
					CHANNELS 3 Zrotation Yrotation Xrotation
					End Site
					{
						OFFSET 0.000000 0.000000 0.000000
					}
				}
			}
		}
	}
}
MOTION
Frames: 7
Frame Time: 0.016667
-2.778000 110.375000 1082.048950 -1.162451 4.605976 -0.164022 0.413559 3.971614 0.898236 0.351843 -0.572697 -0.226241 0.357082 0.807989 0.125536 -0.552758 6.044371 1.092826 0.000000 0.000000 0.000000 0.345119 -0.518722 0.181624 -0.171730 -0.460992 -0.211846 -0.092615 -1.759058 -0.494805 0.000000 0.000000 0.000000 -0.546911 -0.731356 -0.279679 -0.018489 -0.683810 -1.006010 0.236093 -1.392820 0.839533 0.000000 0.000000 0.000000 0.329043 -3.268737 -0.761617 0.457354 5.845837 0.160838 0.470539 3.393986 -0.653574 0.000000 0.000000 0.000000 0.129860 -2.023094 -0.435479 0.046671 3.180619 -0.689155 0.017538 4.645406 -0.842589 0.000000 0.000000 0.000000 
-2.661000 110.094000 1082.547000 -1.154323 4.632722 -0.167171 0.421478 4.075988 0.881282 0.362240 -0.588356 -0.223747 0.366257 0.828749 0.122289 -0.544474 6.076023 1.056851 0.000000 0.000000 0.000000 0.369133 -0.472782 0.177070 -0.171195 -0.410764 -0.192132 -0.118203 -1.624238 -0.613881 0.000000 0.000000 0.000000 -0.537703 -0.667224 -0.300492 -0.017394 -0.621416 -1.034542 0.271126 -1.260527 0.963074 0.000000 0.000000 0.000000 0.326828 -3.354076 -0.741791 0.457958 5.929703 0.168495 0.475259 3.571403 -0.696537 0.000000 0.000000 0.000000 0.111790 -2.114723 -0.393992 0.026723 3.277022 -0.709817 -0.002925 4.813570 -0.882555 0.000000 0.000000 0.000000 
-2.525000 109.750000 1083.031010 -1.142607 4.636032 -0.171880 0.432442 4.171336 0.862866 0.376093 -0.598964 -0.218883 0.378709 0.845427 0.117302 -0.536876 6.092399 1.024963 0.000000 0.000000 0.000000 0.392187 -0.433259 0.172508 -0.171427 -0.367263 -0.180289 -0.143952 -1.493670 -0.733925 0.000000 0.000000 0.000000 -0.530324 -0.603620 -0.313876 -0.014911 -0.559285 -1.061838 0.303954 -1.146097 1.078852 0.000000 0.000000 0.000000 0.321770 -3.418033 -0.716018 0.455536 6.026466 0.177363 0.476752 3.743026 -0.739462 0.000000 0.000000 0.000000 0.086403 -2.186113 -0.343629 -0.000313 3.388465 -0.732482 -0.029939 4.970902 -0.923473 0.000000 0.000000 0.000000 
-2.374000 109.323000 1083.501950 -1.109574 4.620843 -0.175887 0.439479 4.254816 0.842765 0.386330 -0.608605 -0.216008 0.387928 0.860839 0.114015 -0.530129 6.105228 0.996372 0.000000 0.000000 0.000000 0.409928 -0.401331 0.172249 -0.173636 -0.332581 -0.182832 -0.165820 -1.388883 -0.836047 0.000000 0.000000 0.000000 -0.520704 -0.547223 -0.326300 -0.010511 -0.503749 -1.073868 0.331411 -1.050039 1.175712 0.000000 0.000000 0.000000 0.313518 -3.450725 -0.683701 0.449200 6.105855 0.181465 0.474539 3.916243 -0.784423 0.000000 0.000000 0.000000 0.050517 -2.248355 -0.284515 -0.037966 3.523695 -0.758379 -0.066758 5.115413 -0.966424 0.000000 0.000000 0.000000 
-2.210000 108.800000 1083.956050 -1.046929 4.585203 -0.179318 0.438939 4.328958 0.819082 0.389886 -0.619488 -0.213259 0.390471 0.876263 0.110785 -0.525440 6.117793 0.974947 0.000000 0.000000 0.000000 0.420791 -0.377426 0.179866 -0.179094 -0.307563 -0.205201 -0.182429 -1.321970 -0.913936 0.000000 0.000000 0.000000 -0.508279 -0.499073 -0.336388 -0.003630 -0.455595 -1.063318 0.350729 -0.975791 1.243900 0.000000 0.000000 0.000000 0.302631 -3.445528 -0.642871 0.439300 6.158708 0.177428 0.469054 4.093839 -0.831930 0.000000 0.000000 0.000000 -0.001529 -2.301551 -0.212664 -0.091877 3.687078 -0.789913 -0.118918 5.242889 -1.013104 0.000000 0.000000 0.000000 
-2.032000 108.193000 1084.396970 -0.963223 4.531056 -0.182275 0.435035 4.391935 0.792137 0.390914 -0.629168 -0.209307 0.390450 0.888780 0.107306 -0.522333 6.128726 0.958925 0.000000 0.000000 0.000000 0.423438 -0.360382 0.191034 -0.186485 -0.290973 -0.240677 -0.195207 -1.281506 -0.974173 0.000000 0.000000 0.000000 -0.495393 -0.457640 -0.342825 0.004924 -0.413534 -1.039648 0.364624 -0.920718 1.293080 0.000000 0.000000 0.000000 0.288749 -3.409448 -0.595097 0.425684 6.194731 0.168291 0.460032 4.272898 -0.881365 0.000000 0.000000 0.000000 -0.064240 -2.345600 -0.131799 -0.156554 3.873853 -0.825067 -0.181125 5.358338 -1.062067 0.000000 0.000000 0.000000 
-1.840000 107.516000 1084.831050 -0.869199 4.466823 -0.183514 0.432210 4.437457 0.765784 0.393085 -0.636979 -0.206163 0.391737 0.899114 0.103805 -0.518871 6.137584 0.941619 0.000000 0.000000 0.000000 0.422897 -0.349242 0.199072 -0.194043 -0.280553 -0.276105 -0.204837 -1.262580 -1.019878 0.000000 0.000000 0.000000 -0.482242 -0.425639 -0.348934 0.014102 -0.380684 -1.012128 0.377108 -0.880444 1.337504 0.000000 0.000000 0.000000 0.271805 -3.350953 -0.544179 0.408313 6.211182 0.158472 0.447597 4.453581 -0.932716 0.000000 0.000000 0.000000 -0.121160 -2.387535 -0.052557 -0.215835 4.078517 -0.858791 -0.237467 5.469439 -1.107620 0.000000 0.000000 0.000000 
